<svg xmlns="http://www.w3.org/2000/svg" xmlns:xlink="http://www.w3.org/1999/xlink" viewBox="0 0 159.64 146.18"><defs><style>.cls-1{isolation:isolate;}.cls-2{fill:#91a2ae;}.cls-3{fill:#898989;}.cls-12,.cls-18,.cls-3,.cls-43,.cls-44,.cls-46{opacity:0.55;}.cls-12,.cls-15,.cls-18,.cls-21,.cls-24,.cls-26,.cls-27,.cls-3,.cls-35,.cls-41,.cls-43,.cls-5,.cls-9{mix-blend-mode:multiply;}.cls-4{fill:#6e5c60;}.cls-5,.cls-6,.cls-8{fill:#392b30;}.cls-11,.cls-15,.cls-5{opacity:0.75;}.cls-7{fill:#e1dadd;}.cls-11,.cls-19,.cls-25,.cls-29,.cls-44,.cls-46,.cls-8{mix-blend-mode:screen;}.cls-10,.cls-12,.cls-9{fill:#5f5858;}.cls-11{fill:#c2bfbf;}.cls-13{fill:#aca8a8;}.cls-14,.cls-15{fill:#716a6a;}.cls-16{fill:#ffaa43;}.cls-17{fill:#974c3c;}.cls-18{fill:url(#linear-gradient);}.cls-19{fill:#ffdaad;opacity:0.32;}.cls-20{fill:#cddce1;}.cls-21,.cls-28,.cls-29{fill:#bacfd6;}.cls-22,.cls-25,.cls-26{fill:#cb1c19;}.cls-23{fill:#e7f8f5;}.cls-24{fill:#a10300;}.cls-24,.cls-27{opacity:0.35;}.cls-27{fill:#b84341;}.cls-30{fill:#dae5e9;}.cls-31{fill:#f8fafb;}.cls-32{fill:#7c8b9c;}.cls-33{fill:#7ca4b1;}.cls-34{fill:url(#linear-gradient-2);}.cls-36{fill:#d5dae0;}.cls-37{fill:url(#linear-gradient-3);}.cls-38{fill:#fff;}.cls-39,.cls-41{fill:#e7ecee;}.cls-40{fill:#cfd9dd;}.cls-42{fill:#ff0029;}.cls-43{fill:#bfbfbf;}.cls-44{fill:#e0dbce;}.cls-45{fill:#03adf8;}.cls-46{fill:#e0dbdd;}.cls-47{opacity:0.62;mix-blend-mode:overlay;fill:url(#linear-gradient-4);}</style><linearGradient id="linear-gradient" x1="102.48" y1="101.31" x2="113.86" y2="101.31" gradientUnits="userSpaceOnUse"><stop offset="0.07" stop-color="#a9793c"/><stop offset="1" stop-color="#854f00"/></linearGradient><linearGradient id="linear-gradient-2" x1="65.51" y1="99.32" x2="59.57" y2="110.09" gradientUnits="userSpaceOnUse"><stop offset="0" stop-color="#f5f6f6"/><stop offset="0.36" stop-color="#e9ebe5"/><stop offset="0.38" stop-color="#edece5"/><stop offset="0.47" stop-color="#f7eee5"/><stop offset="0.57" stop-color="#faefe5"/><stop offset="0.79" stop-color="#eff1ee"/></linearGradient><linearGradient id="linear-gradient-3" x1="104.81" y1="108.02" x2="93.97" y2="132.5" xlink:href="#linear-gradient-2"/><linearGradient id="linear-gradient-4" x1="114.34" y1="20.53" x2="39.9" y2="135.74" gradientUnits="userSpaceOnUse"><stop offset="0" stop-color="#f9ead2"/><stop offset="0.14" stop-color="#efc584"/><stop offset="0.25" stop-color="#efc082"/><stop offset="0.39" stop-color="#eeb17b"/><stop offset="0.5" stop-color="#ee9f72"/><stop offset="0.59" stop-color="#de946d"/><stop offset="0.77" stop-color="#b5765f"/><stop offset="1" stop-color="#774a4a"/></linearGradient></defs><title>icon_movie_now</title><g class="cls-1"><g id="Camada_1" data-name="Camada 1"><path class="cls-2" d="M9.28,113.44s78.54-35.67,141.24,1.41c0,0-20.19,19.74-69,19.72C60.84,134.56,32,125.9,9.28,113.44Z"/><path class="cls-3" d="M94.38,127.9,99.23,122s9.19-5.3,9.08-4,6.6,1.86,7.2.82-1.66-3.52-1.66-3.52c15.5,3.33,25.26-.4,24.76-1.26s-18.45-3.93-18.45-3.93,12.94.52,16.48-2.2c-46-19.3-96.5-5.66-117.43,1.69L30,112.92l6.4,2.77,4.44.38-.43,3.36L54.8,124a17.52,17.52,0,0,1,10.38,3.28l22.57,5Z"/><polygon class="cls-4" points="21.29 52.52 32.53 111.46 36.72 114.39 112.69 105.06 104.5 49.97 21.29 52.52"/><path class="cls-5" d="M27.93,52.31l-6.64.21,2.26,11.84c1.68.28,3.35.58,5,.91C28.33,61,28.15,56.64,27.93,52.31Z"/><polygon class="cls-6" points="36.72 114.39 112.69 105.06 104.5 49.97 24.91 52.41 36.72 114.39"/><polygon class="cls-5" points="105.44 56.33 104.5 49.97 24.91 52.41 27.3 64.92 105.44 56.33"/><path class="cls-7" d="M35.36,70.21l-.71.07L35,72a3,3,0,0,1-.51.08,2.21,2.21,0,0,1-.52,0L33,67l0,0,1.69-.18a1.82,1.82,0,0,1,2.14,1.57A1.49,1.49,0,0,1,35.36,70.21Zm-.85-.7.64-.07c.69-.06.73-.62.66-1a.92.92,0,0,0-1-.87l-.65,0Z"/><path class="cls-7" d="M40.64,69.23a1.14,1.14,0,0,1,.68.6l.42.73a1.41,1.41,0,0,0,.46.51.8.8,0,0,1-.63.36c-.38,0-.54-.15-.76-.53L40.33,70a.76.76,0,0,0-.81-.47l-.47,0,.35,2a3.22,3.22,0,0,1-.51.09,4.16,4.16,0,0,1-.51,0l-.91-5.08,0,0,1.75-.19a1.74,1.74,0,0,1,2.09,1.42A1.31,1.31,0,0,1,40.64,69.23Zm-1.73-.4.71-.08c.66-.06.75-.47.67-.88a.8.8,0,0,0-1-.74l-.7.06Z"/><path class="cls-7" d="M42.71,66.44A1.92,1.92,0,0,1,44,65.86a2.21,2.21,0,0,1,1.48.33,3.13,3.13,0,0,1,1.2,2.12,2.66,2.66,0,0,1-.43,2.28,1.87,1.87,0,0,1-1.31.58,2.2,2.2,0,0,1-1.47-.33,3.14,3.14,0,0,1-1.21-2.13A2.64,2.64,0,0,1,42.71,66.44Zm2.11,4c1-.09,1-1.14.8-2s-.49-1.85-1.46-1.77-.95,1.13-.8,2S43.85,70.47,44.82,70.39Z"/><path class="cls-7" d="M51.26,70.15a2.24,2.24,0,0,1-1.3.49c-.64.06-1.13.09-1.8.14l-.06,0-.88-5,0,0c.65-.08,1.16-.14,1.8-.19a2.55,2.55,0,0,1,1.43.25,2.81,2.81,0,0,1,1.21,2.13A2.4,2.4,0,0,1,51.26,70.15ZM49.2,66.27c-.29,0-.53,0-.84.06L49,69.94l.83-.09c1-.09,1-1.07.82-1.89S50.2,66.18,49.2,66.27Z"/><path class="cls-7" d="M56.69,68.13A1.65,1.65,0,0,1,55,70.25a2,2,0,0,1-2.31-1.76l-.57-3.25,0,0,.38,0c.4,0,.63.15.7.59l.47,2.67c.12.74.5,1.1,1.16,1s.9-.47.77-1.22L55.12,65a2.94,2.94,0,0,1,.49-.08,4.38,4.38,0,0,1,.52,0Z"/><path class="cls-7" d="M59.25,65.31c-.71.06-.94.74-.73,2S59.25,69,60,68.92a2,2,0,0,0,1.22-.67,1.41,1.41,0,0,1,.6.61,2.71,2.71,0,0,1-1.84.94c-1.53.14-2.26-1.14-2.48-2.44-.32-1.86.52-2.76,1.69-2.86a1.83,1.83,0,0,1,2.13,1.33.46.46,0,0,1-.47.61,1.86,1.86,0,0,1-.41,0C60.31,65.83,60,65.24,59.25,65.31Z"/><path class="cls-7" d="M62.91,65.67c0-.2-.06-.34-.09-.55h0l-.45,0-.84.08a1.94,1.94,0,0,1-.1-.42,2.39,2.39,0,0,1,0-.42L65,64.09a2.11,2.11,0,0,1,.11.38c.06.33-.09.46-.46.5l-.36,0-.45,0h0c0,.21.07.35.1.55l.63,3.69a3.43,3.43,0,0,1-.51.09,2.89,2.89,0,0,1-.51,0Z"/><path class="cls-7" d="M65.71,64a2.92,2.92,0,0,1,.5-.09,2.89,2.89,0,0,1,.51,0L67.57,69c-.16,0-.36.06-.5.08a4.21,4.21,0,0,1-.51,0Z"/><path class="cls-7" d="M68.54,64.13a1.88,1.88,0,0,1,1.29-.58,2.21,2.21,0,0,1,1.44.33A3.08,3.08,0,0,1,72.43,66,2.67,2.67,0,0,1,72,68.24a1.85,1.85,0,0,1-1.28.57,2.18,2.18,0,0,1-1.44-.32,3.17,3.17,0,0,1-1.17-2.11A2.7,2.7,0,0,1,68.54,64.13Zm2,3.91c1-.09.94-1.12.8-2s-.47-1.83-1.42-1.75-.94,1.12-.8,2S69.63,68.12,70.58,68Z"/><path class="cls-7" d="M76.85,63l.82,5a3.64,3.64,0,0,1-.59.1,5.17,5.17,0,0,1-.6,0l-1.84-2.73c-.23-.36-.45-.7-.62-1h0c.14.56.32,1.42.42,2l.31,1.87a2,2,0,0,1-.45.08,3.72,3.72,0,0,1-.48,0l-.84-5a3.47,3.47,0,0,1,.59-.1,5.07,5.07,0,0,1,.59,0L76,66l.66,1h0c-.16-.64-.33-1.51-.41-2L76,63.68c-.08-.44,0-.62.45-.66l.32,0Z"/><path class="cls-7" d="M38.59,80.55a2.21,2.21,0,0,1-1.2.46l-1.67.13-.06,0-.84-4.6,0,0c.6-.07,1.07-.13,1.66-.18a2.47,2.47,0,0,1,1.33.22,2.59,2.59,0,0,1,1.13,2A2.22,2.22,0,0,1,38.59,80.55ZM36.66,77l-.77.06.6,3.3.77-.08c.92-.08.89-1,.76-1.74S37.59,76.91,36.66,77Z"/><path class="cls-7" d="M39.48,76A2.72,2.72,0,0,1,40,76a3.72,3.72,0,0,1,.48,0l.83,4.66a2,2,0,0,1-.46.08,1.91,1.91,0,0,1-.48,0Z"/><path class="cls-7" d="M44.51,78.26a1,1,0,0,1,.63.55l.38.66a1.19,1.19,0,0,0,.42.47.74.74,0,0,1-.58.33c-.34,0-.49-.14-.69-.48L44.23,79a.69.69,0,0,0-.74-.42l-.43,0,.32,1.78a2.78,2.78,0,0,1-.46.08,3.57,3.57,0,0,1-.47,0l-.83-4.63,0,0,1.6-.18a1.58,1.58,0,0,1,1.91,1.29A1.2,1.2,0,0,1,44.51,78.26Zm-1.57-.35.64-.08c.61-.06.69-.44.62-.81a.72.72,0,0,0-.88-.67l-.65.06Z"/><path class="cls-7" d="M49.73,79.37c0,.29-.18.46-.53.49l-2,.19a.56.56,0,0,1-.63-.5l-.72-4.07,0,0,2.91-.28a1.24,1.24,0,0,1,.1.36,1.47,1.47,0,0,1,0,.42l-1.54.14-.46.05c0,.17.06.29.09.47l.12.7c.18,0,.36,0,.46-.05l1.18-.11a1.33,1.33,0,0,1,.12.37,1.19,1.19,0,0,1,0,.38L47.74,78l-.46,0,.15.8c0,.15,0,.27.06.43.15,0,.3-.05.49-.06L49.69,79A2.66,2.66,0,0,1,49.73,79.37Z"/><path class="cls-7" d="M51.65,75.54c-.66.06-.86.69-.67,1.8s.67,1.56,1.33,1.5a1.86,1.86,0,0,0,1.13-.61,1.2,1.2,0,0,1,.54.55,2.51,2.51,0,0,1-1.69.87c-1.41.13-2.08-1-2.29-2.22-.3-1.7.47-2.53,1.55-2.63a1.69,1.69,0,0,1,2,1.21.43.43,0,0,1-.44.56,2.26,2.26,0,0,1-.37,0C52.63,76,52.33,75.47,51.65,75.54Z"/><path class="cls-7" d="M55,75.86c0-.19-.05-.32-.08-.51h0l-.42.05-.77.07a2.15,2.15,0,0,1-.1-.38,1.46,1.46,0,0,1,0-.38l3.32-.31a1.2,1.2,0,0,1,.11.35c.05.3-.09.42-.43.45l-.32,0-.42,0h0c0,.19.06.32.09.5l.59,3.38a4.63,4.63,0,0,1-.47.08,3.52,3.52,0,0,1-.47,0Z"/><path class="cls-7" d="M58.09,74.62a1.73,1.73,0,0,1,1.19-.54,2,2,0,0,1,1.33.3,2.77,2.77,0,0,1,1.08,1.92,2.41,2.41,0,0,1-.4,2.07,1.68,1.68,0,0,1-1.18.53,1.93,1.93,0,0,1-1.33-.29,2.82,2.82,0,0,1-1.09-1.93A2.46,2.46,0,0,1,58.09,74.62ZM60,78.19c.87-.08.86-1,.73-1.79s-.44-1.69-1.32-1.6-.86,1-.73,1.79S59.11,78.28,60,78.19Z"/><path class="cls-7" d="M65,76.32a1,1,0,0,1,.61.55l.37.66a1.3,1.3,0,0,0,.41.46.74.74,0,0,1-.57.33c-.34,0-.48-.14-.67-.48l-.43-.78a.67.67,0,0,0-.72-.42l-.42,0,.3,1.77a4.46,4.46,0,0,1-.46.08,3.41,3.41,0,0,1-.46,0L62.17,74l0,0c.55-.06,1.07-.13,1.57-.17A1.53,1.53,0,0,1,65.64,75,1.18,1.18,0,0,1,65,76.32ZM63.45,76l.63-.08c.6,0,.67-.42.61-.8a.7.7,0,0,0-.86-.66l-.64,0Z"/><path class="cls-7" d="M38.43,85.85c-.67.07-.87.7-.67,1.81s.68,1.56,1.35,1.49a1.89,1.89,0,0,0,1.13-.61,1.27,1.27,0,0,1,.56.54,2.53,2.53,0,0,1-1.71.88c-1.42.14-2.11-1-2.32-2.21-.31-1.7.47-2.53,1.55-2.63a1.71,1.71,0,0,1,2,1.2.43.43,0,0,1-.44.56,2.38,2.38,0,0,1-.38,0C39.42,86.32,39.12,85.79,38.43,85.85Z"/><path class="cls-7" d="M42.27,88.48l-.14,1.09a1.51,1.51,0,0,1-.4.07,1.41,1.41,0,0,1-.46,0l0,0L42,84.87a3.2,3.2,0,0,1,.54-.09,2.53,2.53,0,0,1,.55,0l2.35,4.41a1.33,1.33,0,0,1-.52.17c-.3,0-.47-.06-.65-.44l-.3-.59-.35,0-1,.09Zm.1-.74.32,0,.6-.06.29,0L43.25,87c-.19-.37-.43-.88-.61-1.28h0a10.84,10.84,0,0,1-.1,1.17Z"/><path class="cls-7" d="M45.51,84.53a5.43,5.43,0,0,1,.62-.11,3.94,3.94,0,0,1,.6,0l.87,1.82c.08.19.38.87.47,1.14h0c0-.27,0-1,.06-1.18l.2-1.93a3.53,3.53,0,0,1,.58-.1,4.37,4.37,0,0,1,.64,0l1.18,4.56a2.07,2.07,0,0,1-.46.1,3,3,0,0,1-.42,0l-.51-2.16c-.1-.41-.24-1-.32-1.46h0l-.29,3a4,4,0,0,1-.48.08,3.61,3.61,0,0,1-.47,0l-1.34-2.86h0c.07.43.16,1.06.2,1.48l.26,2.18a2.72,2.72,0,0,1-.89.07Z"/><path class="cls-7" d="M54.8,87.88c0,.29-.18.46-.52.49l-2,.2a.54.54,0,0,1-.62-.49L51,84,51,84l2.89-.29a2.54,2.54,0,0,1,.1.36,1.15,1.15,0,0,1,0,.41l-1.52.15-.46,0c0,.18.06.3.09.47l.12.7c.17,0,.35,0,.45,0l1.17-.12a1.33,1.33,0,0,1,.13.74l-1.17.12-.45,0,.14.8c0,.15,0,.26.06.42l.49-.06,1.7-.17A2.68,2.68,0,0,1,54.8,87.88Z"/><path class="cls-7" d="M57.8,86a1,1,0,0,1,.61.54l.37.65a1.23,1.23,0,0,0,.41.46.7.7,0,0,1-.56.33c-.34,0-.49-.13-.68-.47l-.43-.77a.68.68,0,0,0-.73-.42l-.42,0,.3,1.76a2.51,2.51,0,0,1-.45.08,2.38,2.38,0,0,1-.47,0L55,83.64l0,0,1.58-.18a1.54,1.54,0,0,1,1.87,1.27A1.2,1.2,0,0,1,57.8,86Zm-1.55-.34.63-.09c.6-.06.68-.43.61-.8a.69.69,0,0,0-.86-.65l-.64,0Z"/><path class="cls-7" d="M60.5,86.68l-.14,1.08a2.18,2.18,0,0,1-.4.08,1.66,1.66,0,0,1-.45,0l0,0,.75-4.69a4.68,4.68,0,0,1,.54-.08,2.43,2.43,0,0,1,.54,0l2.28,4.38a1.14,1.14,0,0,1-.51.16c-.3,0-.46-.05-.63-.43l-.3-.59-.34,0-1,.1Zm.1-.73.31,0,.59-.06.3,0-.33-.67c-.18-.37-.42-.87-.6-1.27h0c0,.35-.07.85-.11,1.17Z"/><path class="cls-7" d="M44.82,99.28a1.62,1.62,0,0,1-1,.39c-.47.06-.83.09-1.32.14l0,0-.73-3.63,0,0,1.31-.18a2.05,2.05,0,0,1,1.06.15,2,2,0,0,1,.92,1.53A1.73,1.73,0,0,1,44.82,99.28Zm-1.57-2.77-.61.06.51,2.61.61-.08c.73-.09.7-.81.58-1.4S44,96.42,43.25,96.51Z"/><path class="cls-7" d="M46.61,98.46l-.1.87a1,1,0,0,1-.32.07,1.13,1.13,0,0,1-.37,0l0,0,.53-3.78.43-.08.43,0L49.11,99a.84.84,0,0,1-.41.15c-.23,0-.37,0-.52-.34l-.25-.47-.27,0-.78.09Zm.07-.59.25,0,.48,0,.23,0-.27-.53c-.16-.29-.36-.69-.51-1h0c0,.28,0,.68-.07.94Z"/><path class="cls-7" d="M49.7,96.2c0-.15,0-.25-.07-.4h0l-.33,0-.62.07a2.43,2.43,0,0,1-.09-.3,2.32,2.32,0,0,1,0-.31L51.21,95a1.08,1.08,0,0,1,.1.27c0,.24-.07.34-.34.37l-.26,0-.34,0h0l.08.4L51,98.79a1.72,1.72,0,0,1-.37.07,1.5,1.5,0,0,1-.38,0Z"/><path class="cls-7" d="M54.83,98c0,.23-.13.37-.4.4l-1.56.19a.43.43,0,0,1-.51-.38L51.73,95l0,0,2.32-.27a2.05,2.05,0,0,1,.08.28.91.91,0,0,1,0,.33l-1.22.15-.36,0c0,.14.05.23.07.37l.11.55.36,0,.94-.12a1.25,1.25,0,0,1,.1.29,1.05,1.05,0,0,1,0,.31l-.93.11-.36,0,.12.64c0,.11,0,.21.06.33l.38-.06,1.36-.16A1.7,1.7,0,0,1,54.83,98Z"/><path class="cls-7" d="M66.23,96.44a2.27,2.27,0,0,0,1.17.22c.38,0,.53-.26.49-.49s-.17-.34-.51-.43l-.7-.19a1.16,1.16,0,0,1-1-.87c-.12-.63.35-1.15,1.09-1.24a3.09,3.09,0,0,1,1.28.15.78.78,0,0,1-.15.58,2.6,2.6,0,0,0-1-.14c-.35,0-.5.25-.46.47s.19.28.46.36l.7.19a1.27,1.27,0,0,1,1,.93c.12.63-.26,1.16-1.19,1.28A2.71,2.71,0,0,1,66,97,.83.83,0,0,1,66.23,96.44Z"/><path class="cls-7" d="M70.19,93.63c-.52.06-.67.56-.51,1.44s.54,1.21,1.06,1.15a1.46,1.46,0,0,0,.88-.5,1,1,0,0,1,.44.42,2,2,0,0,1-1.33.72c-1.1.13-1.64-.77-1.82-1.71-.25-1.33.35-2,1.2-2.1a1.31,1.31,0,0,1,1.56.92c0,.26-.07.41-.34.45a1.48,1.48,0,0,1-.3,0C71,94,70.73,93.56,70.19,93.63Z"/><path class="cls-7" d="M75.13,95.92c0,.22-.13.36-.4.39l-1.53.19a.43.43,0,0,1-.5-.38l-.59-3.19,0,0,2.27-.27a1.21,1.21,0,0,1,.08.28.86.86,0,0,1,0,.32l-1.2.15-.36,0,.08.37.1.55.35,0,.92-.11a.91.91,0,0,1,.1.29,1,1,0,0,1,0,.3l-.92.11-.35,0,.11.63c0,.12,0,.21.06.33l.38-.06,1.33-.16A1.7,1.7,0,0,1,75.13,95.92Z"/><path class="cls-7" d="M78.05,92.19l.67,3.62a2.55,2.55,0,0,1-.43.09c-.1,0-.28,0-.44,0l-1.38-2-.46-.7h0c.11.41.25,1,.33,1.45l.25,1.35a1.63,1.63,0,0,1-.33.07,2,2,0,0,1-.35,0l-.67-3.63a2.26,2.26,0,0,1,.42-.09,2.75,2.75,0,0,1,.43,0l1.37,1.94.5.75h0c-.12-.46-.26-1.08-.33-1.45l-.18-1c0-.32,0-.45.33-.49l.23,0Z"/><path class="cls-7" d="M82,95.09c0,.23-.14.37-.4.4L80,95.67a.43.43,0,0,1-.5-.37L79,92.11l0,0,2.26-.27a2.05,2.05,0,0,1,.08.28,1.21,1.21,0,0,1,0,.33l-1.2.14-.35,0c0,.14,0,.23.07.37l.1.55.35-.05.92-.11a.88.88,0,0,1,.09.29.74.74,0,0,1,0,.3l-.91.11-.35,0,.11.63c0,.11,0,.2.06.33L80.6,95l1.33-.16A1.7,1.7,0,0,1,82,95.09Z"/><path class="cls-7" d="M89.05,91.66c0-.14,0-.24-.07-.39h0l-.32,0-.6.07a1.15,1.15,0,0,1-.08-.29,1.32,1.32,0,0,1,0-.3l2.58-.31a1.07,1.07,0,0,1,.08.27c0,.24-.06.34-.33.37l-.25,0-.32,0h0l.08.4.47,2.64-.36.07-.37,0Z"/><path class="cls-7" d="M92.09,93.16,92,94a1.2,1.2,0,0,1-.3.07,1.42,1.42,0,0,1-.36,0l0,0,.56-3.71a3,3,0,0,1,.84-.1l1.8,3.43a.9.9,0,0,1-.39.14c-.23,0-.36,0-.5-.33L93.36,93l-.26,0-.75.09Zm.08-.59.24,0,.46-.06.22,0-.25-.52c-.15-.29-.34-.68-.48-1h0a9.19,9.19,0,0,1-.08.93Z"/><path class="cls-7" d="M97.3,93.41c-.27,0-.38-.09-.52-.36l-.37-.67c-.19-.35-.37-.47-.65-.43l-.3,0,.28,1.57a2.46,2.46,0,0,1-.36.06,1.37,1.37,0,0,1-.36,0L94.38,90l.35-.07a2.26,2.26,0,0,1,.37,0l.26,1.46.21,0c.12,0,.15-.06.19-.19l.41-1.12c.07-.18.13-.28.35-.31l.43,0,0,.05-.5,1.37a.89.89,0,0,1-.2.36A.91.91,0,0,1,97,92l.37.68a1,1,0,0,0,.34.41A.55.55,0,0,1,97.3,93.41Z"/><path class="cls-7" d="M100.58,92.64c0,.22-.14.36-.4.39l-1.5.18a.41.41,0,0,1-.48-.37l-.56-3.17,0,0,2.23-.26a2,2,0,0,1,.08.27,1.25,1.25,0,0,1,0,.33l-1.17.14-.35,0c0,.14,0,.23.06.37l.1.54L99,91l.9-.1a.76.76,0,0,1,.09.28,1,1,0,0,1,0,.3l-.9.11-.35,0,.11.62c0,.12,0,.21.05.33l.37-.06,1.31-.15A1.56,1.56,0,0,1,100.58,92.64Z"/><polygon class="cls-7" points="79.42 67.25 103.08 64.87 103.23 65.7 79.6 67.95 79.42 67.25"/><polygon class="cls-7" points="68.75 76.88 104.61 73.33 104.76 74.16 68.92 77.58 68.75 76.88"/><polygon class="cls-7" points="69.54 86.16 105.82 82.4 105.97 83.22 69.72 86.85 69.54 86.16"/><polygon class="cls-7" points="108.31 95.91 108.16 95.09 38.27 103.26 38.45 103.95 60 101.47 61.41 109.31 62.11 109.18 60.73 101.39 85.42 98.54 86.71 106.22 87.4 106.09 86.14 98.46 108.31 95.91"/><polygon class="cls-6" points="9.12 33.07 20.09 59.96 108.66 50.13 106.91 34.83 22.65 43.72 104.86 19.94 97.98 4.49 9.12 33.07"/><path class="cls-8" d="M23.82,58.54l83.72-9.63L105.9,36.43,24.79,45,23.1,41.7l80-22.66-5.88-13L14,32.78C14.87,35.15,22.55,55.19,23.82,58.54Z"/><path class="cls-7" d="M84.54,8.81,71.46,13C77.39,16.17,82,21.24,87.38,25l14.75-4.27C96.23,16.89,90.17,13.52,84.54,8.81Z"/><path class="cls-7" d="M56.62,17.79,42.54,22.32C48.35,26.05,54.12,29.7,59.83,33L75,28.59C68.81,25.45,63,21.27,56.62,17.79Z"/><path class="cls-7" d="M21.76,37.76A34,34,0,0,0,27,41.56a5.74,5.74,0,0,1,.9.64l13.4-3.88c-5.08-3.43-9.66-7.15-14.46-11L14.17,31.44C16.85,33.38,19.28,35.59,21.76,37.76Z"/><path class="cls-7" d="M28.76,43.08c.32.43-3.89,14.73-4.48,16.42L37.6,58c2.55-5.58,7.79-16.7,7.79-16.7Z"/><path class="cls-7" d="M61.37,39.64C59,45,57,50.59,55,56.09l15-1.66c2-5.55,3.8-11.23,6.43-16.38Z"/><path class="cls-7" d="M88.56,36.77c-2.19,5.5-4.29,11-6.64,16.33l13.91-1.54c2.84-5.45,6.37-10.61,8.61-16.47Z"/><polygon class="cls-6" points="98.39 5.42 97.98 4.49 95.52 5.28 98.39 5.42"/><path class="cls-4" d="M12.54,32l-3.42,1.1L20.09,60l3.1-.34C21.68,55.55,12.54,32,12.54,32Z"/><path class="cls-9" d="M16,35.9l7.68,19.86a1.27,1.27,0,0,0,1.3.8l18.19-2A1,1,0,0,0,44,53.31L42.5,46.59a1.23,1.23,0,0,0-.4-.65L26.58,32.51a1.27,1.27,0,0,0-1.11-.28l-8.79,2.29A1,1,0,0,0,16,35.9Z"/><path class="cls-10" d="M16.69,35.47l7.52,19.46a1.24,1.24,0,0,0,1.27.77l17.8-2a1,1,0,0,0,.86-1.2l-1.51-6.59a1.2,1.2,0,0,0-.39-.63L27.05,32.16A1.23,1.23,0,0,0,26,31.88l-8.61,2.24A1,1,0,0,0,16.69,35.47Z"/><path class="cls-11" d="M18.69,40.65c.93-1.53,4.26-7.06,5.1-8.2l-6.44,1.67a1,1,0,0,0-.66,1.35Z"/><path class="cls-11" d="M32.32,36.73l-1.72-1.5c-2.81,4.68-5.53,9.42-8.63,13.9l1.29,3.34C24.37,50,31.66,37.7,32.32,36.73Z"/><path class="cls-11" d="M44.14,52.53l-1.51-6.59h0c-1.26,2.68-2.22,5.53-3.41,8.24l4.06-.45A1,1,0,0,0,44.14,52.53Z"/><path class="cls-12" d="M26.65,38.26a2.13,2.13,0,0,1-2.43,2.1,2.72,2.72,0,0,1-2.73-2.27A2.14,2.14,0,0,1,23.93,36,2.71,2.71,0,0,1,26.65,38.26Z"/><path class="cls-12" d="M30.67,50.36a2.14,2.14,0,0,1-2.42,2.09,2.68,2.68,0,0,1-2.7-2.24A2.14,2.14,0,0,1,28,48.11,2.68,2.68,0,0,1,30.67,50.36Z"/><path class="cls-12" d="M40.29,49.31a2.12,2.12,0,0,1-2.4,2.08,2.66,2.66,0,0,1-2.68-2.23,2.13,2.13,0,0,1,2.41-2.08A2.64,2.64,0,0,1,40.29,49.31Z"/><path class="cls-13" d="M26.89,37.89A2.13,2.13,0,0,1,24.46,40a2.72,2.72,0,0,1-2.73-2.28,2.14,2.14,0,0,1,2.44-2.1A2.72,2.72,0,0,1,26.89,37.89Z"/><path class="cls-13" d="M30.9,50a2.14,2.14,0,0,1-2.41,2.1,2.69,2.69,0,0,1-2.71-2.24,2.14,2.14,0,0,1,2.43-2.1A2.67,2.67,0,0,1,30.9,50Z"/><path class="cls-13" d="M40.53,48.94A2.13,2.13,0,0,1,38.12,51a2.64,2.64,0,0,1-2.67-2.23,2.12,2.12,0,0,1,2.41-2.08A2.64,2.64,0,0,1,40.53,48.94Z"/><path class="cls-14" d="M25.27,39.07A2.78,2.78,0,0,1,22.6,36.8a1.33,1.33,0,0,0-.51,1.13,2,2,0,0,0,2,1.65,1.85,1.85,0,0,0,1.38-.52Z"/><path class="cls-14" d="M29,51.05a2.71,2.71,0,0,1-2.56-1.93,1.24,1.24,0,0,0-.32.93,1.93,1.93,0,0,0,1.95,1.62,1.77,1.77,0,0,0,1.5-.66A3.4,3.4,0,0,1,29,51.05Z"/><path class="cls-14" d="M36.42,47.81A1.35,1.35,0,0,0,35.8,49a1.91,1.91,0,0,0,1.93,1.61,1.89,1.89,0,0,0,1.2-.37A2.71,2.71,0,0,1,36.42,47.81Z"/><path class="cls-15" d="M105.61,57.42c-.35.15-.71.29-1.07.42a24.83,24.83,0,0,1-4.21,1,23,23,0,0,1-4.68,4.5,29.7,29.7,0,0,1-4.31,2.12,59.55,59.55,0,0,0,5.19,3.85c4.49,2.68,4.4,10.41-1.75,9.91a22.93,22.93,0,0,1-11.94-4.59,5.09,5.09,0,0,1-4.37,2.14,5.75,5.75,0,0,1-3.12-.86C72.62,82,68.18,95.34,65.49,97,58.06,101.66,48.1,97,40,99a11.53,11.53,0,0,0-.19,1.14c-.11.72-.18,1.44-.22,2.17-.13,1.93-.27,3.85-.46,5.77A35.35,35.35,0,0,1,38,114.22l74.65-9.16Z"/><path class="cls-16" d="M113,99.28l.87-1.55c-6.64-1.63-3.28-5.07-3.28-5.07-11.82-3-23.94-12.92-23.94-12.92-1.21,2.62-3.76,1.46-5.37.35-.15.34-.31.67-.48,1a1.07,1.07,0,0,1,.4,1.48c-.3.42-.8.33-1.28.1l-.45.74c1,.34,1.3.8.71,1.63-.29.41-1,.13-1.59-.23l-.42.67c.86.34,1.66,1,1.09,1.77s-1.4.25-2-.21c-.21.38-.42.76-.62,1.14.81.16,1.77.59,1.21,1.69s-1.39.44-2-.15c-.18.36-.35.73-.53,1.09.56.38.94,1.09.52,1.64s-.86.33-1.35.11c-.19.39-.37.78-.56,1.16,5.82,2.54,1.4,4.36,1.4,4.36,12.55,4.54,24.32,15.19,24.32,15.19,1-3.86,4-2,5.55-.74.27-.49.56-1,.86-1.45a1.06,1.06,0,0,1-.15-1.31c.34-.84.86-.77,1.31-.46l.56-.84c-.55-.28-.93-.74-.47-1.35a1.11,1.11,0,0,1,1.54-.29l.57-1a1,1,0,0,1-.49-1.33c.28-.51.85-.43,1.34-.21.21-.37.41-.74.61-1.11-.67-.35-1.28-1-.89-1.59s1.1-.27,1.69.09l.61-1.13c-.54-.3-1.08-.78-1-1.3S112.31,99,113,99.28Z"/><path class="cls-17" d="M97.4,109.55l-.2-.47c-.12-.28-1.31-1.46-9.66-6.34-3.58-2.1-6.82-3.89-6.85-3.91l-.22-.12.08-.23c.7-2.12-.68-3.46-2-4.19a5.19,5.19,0,0,0-.84-.41l-.38-.14.23-.31c.89-1.17,4.91-9.53,5-9.61l.14-.31.28.21c2.73,2,5-.62,5.07-.64l.2-.23.22.21a36.09,36.09,0,0,0,5.87,3.77c5.41,3,12.51,6.55,12.58,6.59l.27.13-.12.26c-1.42,3.07,2.09,6.1,2.13,6.13l.24.21-.21.22c-.49.5-4.38,6.21-5.82,8.34l-.16.24-.26-.18c-3.17-2.2-5.2.29-5.28.39Zm-9.59-7.3c7.18,4.19,9.11,5.67,9.68,6.27a4.27,4.27,0,0,1,5.58-.38c.82-1.23,4.51-6.67,5.51-8-.79-.74-3.32-3.43-2.18-6.36-1.34-.67-7.51-3.76-12.35-6.48a41.36,41.36,0,0,1-5.76-3.66,4.28,4.28,0,0,1-5.35.7c-.7,1.43-3.61,7.41-4.67,9.11,1,.45,3.71,2,2.88,5C81.93,98.89,84.75,100.46,87.81,102.25Z"/><path class="cls-17" d="M87.57,89a.92.92,0,0,0,1.14-.11l.45.54a1.44,1.44,0,0,1-.9.34,2.1,2.1,0,0,1-1.89-1.35A1.83,1.83,0,0,1,86.6,87a1.77,1.77,0,0,1,1-.93,1.74,1.74,0,0,1,1.37.25,2,2,0,0,1,.77.73,1.34,1.34,0,0,1,.14.91l-.67-.18a.77.77,0,0,0-.08-.53,1.09,1.09,0,0,0-.43-.42.92.92,0,0,0-.82-.11,1.33,1.33,0,0,0-.66.65,1.37,1.37,0,0,0-.2.94A1,1,0,0,0,87.57,89Z"/><path class="cls-17" d="M89.13,90.48l1.69-3,.66.38-1.7,3Z"/><path class="cls-17" d="M92.29,92.3l-.05-3.13a5.29,5.29,0,0,1-.27.57l-1,1.8-.58-.34,1.7-3,.75.43.06,3.17a5.16,5.16,0,0,1,.29-.62l1-1.77.59.33-1.72,3Z"/><path class="cls-17" d="M93.67,93.09l1.73-3,2.49,1.43-.28.49-1.83-1-.44.77,1.69,1-.28.5-1.69-1-.45.8,1.91,1.1-.28.49Z"/><path class="cls-17" d="M99.36,96.37l1.07-1.85.07-.12.34-.53c-.33.32-.57.55-.71.67l-1.55,1.37-.48-.27.41-2,.22-1c-.17.35-.29.58-.35.68l-1.06,1.85-.59-.34,1.75-3,.89.51-.41,2,0,.19-.13.47.43-.41,1.62-1.46.89.51L100,96.71Z"/><path class="cls-17" d="M102.84,98.36l.17-.94-1.23-.7-.73.62-.67-.39,3-2.38.79.45-.62,3.73Zm.61-3.09,0,0-.16.14-1,.88.93.53.19-1.06.08-.35Z"/><path class="cls-17" d="M101.62,106.16A57.06,57.06,0,0,1,106,99.7l.49.37a56,56,0,0,0-4.34,6.38Z"/><path class="cls-17" d="M80.46,93.18,80,92.84a50,50,0,0,0,3.46-6.46l.53.25A50.21,50.21,0,0,1,80.46,93.18Z"/><polygon class="cls-17" points="84.7 91.84 83.56 92.64 82.39 91.97 82.6 93.44 81.48 94.31 83.08 94.4 84.04 95.81 84.25 94.29 85.71 94.12 84.5 93.18 84.7 91.84"/><polygon class="cls-17" points="88.53 94.04 87.54 94.93 86.16 94.33 86.58 95.73 85.44 96.6 87.06 96.7 87.86 98.15 88.24 96.59 89.72 96.43 88.5 95.48 88.53 94.04"/><polygon class="cls-17" points="92.57 96.36 91.57 97.25 90.16 96.63 90.59 98.05 89.44 98.91 91.07 99.02 91.88 100.48 92.27 98.92 93.72 98.63 92.53 97.81 92.57 96.36"/><polygon class="cls-17" points="96.85 98.82 95.63 99.59 94.21 98.8 94.63 100.38 93.55 101.32 95.12 101.36 96.09 102.79 96.33 101.26 97.84 101.11 96.6 100.15 96.85 98.82"/><polygon class="cls-17" points="100.85 101.11 99.72 101.94 98.28 101.31 98.72 102.74 97.53 103.6 99.21 103.72 100.13 105.25 100.43 103.63 102.01 103.38 100.64 102.67 100.85 101.11"/><path class="cls-17" d="M103.47,101.53C97.14,97.41,84.11,90.16,84,90.09l.26-.5c.13.07,13.2,7.33,19.55,11.46Z"/><path class="cls-18" d="M102.49,101.13a30.4,30.4,0,0,0,2.88,11.11c.23-.39.45-.78.69-1.16a1.06,1.06,0,0,1-.15-1.31c.34-.84.86-.77,1.31-.46l.56-.84c-.55-.28-.93-.74-.47-1.35a1.11,1.11,0,0,1,1.54-.29l.57-1a1,1,0,0,1-.49-1.33c.28-.51.85-.43,1.34-.21.21-.37.41-.74.61-1.11-.67-.35-1.28-1-.89-1.59s1.1-.27,1.69.09l.61-1.13c-.54-.3-1.08-.78-1-1.3s1-.3,1.65,0l.87-1.55c-6.64-1.63-3.28-5.07-3.28-5.07A43.9,43.9,0,0,1,104,90.37,61.46,61.46,0,0,0,102.49,101.13Z"/><path class="cls-19" d="M90.41,98.78c0-4.27,3.16-8.66,7.16-11.65A89.09,89.09,0,0,1,87,80.05a2.43,2.43,0,0,1-2.64,1.28,5.8,5.8,0,0,1-2.82-1c-.14.29-.28.57-.44.85a1.07,1.07,0,0,1,.38,1.52c-.29.39-.75.35-1.21.17l-.14,0-.46.73.32.15c.76.34.92.79.35,1.55-.31.43-1,.14-1.65-.23l-.39.59a2,2,0,0,1,1.07.92.79.79,0,0,1,0,1c-.61.74-1.49.28-2.11-.2-.18.3-.35.6-.52.9.72.16,1.49.52,1.25,1.37a1.39,1.39,0,0,1-.19.69c-.57,1.07-1.49.48-2.11-.13a.75.75,0,0,1-.07.12l-.27.56c.56.38.94,1.09.52,1.64a.34.34,0,0,1-.08.09.94.94,0,0,1-.2.46,1.12,1.12,0,0,1-1.37.18l-.26.54c3.37,1.48,3.3,2.7,2.65,3.48a1.87,1.87,0,0,1-.68,1.09C83,101,89.71,105.47,94.2,108.85,92.27,105.74,90.39,102.6,90.41,98.78Z"/><path class="cls-20" d="M129.22,106.32a82.45,82.45,0,0,1-9.43-.17c-2.84-.18-5.93,0-8.64-.76l.39,6.25s6.86,2.63,11.58,2.36a53.36,53.36,0,0,0,8.9-1.35l1.44-7A24.06,24.06,0,0,1,129.22,106.32Z"/><path class="cls-21" d="M114.28,110.19a41.82,41.82,0,0,0,8.85,1.06c3.15,0,6.42-1,9.48-1.45l.85-4.11a24.06,24.06,0,0,1-4.24.63,82.45,82.45,0,0,1-9.43-.17c-2.84-.18-5.93,0-8.64-.76l.25,4A29.61,29.61,0,0,0,114.28,110.19Z"/><path class="cls-22" d="M102.45,61.69s7.57,32.42,6.4,42.61c0,0,2.85,3.53,13.28,4.34s13-2.18,13-2.18,1.56-23.25,9.94-41.81C145,64.65,127.93,68.34,102.45,61.69Z"/><path class="cls-23" d="M133.93,73s1.23,7.37-11.11,6.6-15.43,11.09-11.25,18.31,15.22,10.33,20.86,3.1c0,0-5.11,4.53-10.83.28s-2.09-10.24,4-13.51S137.64,82.78,133.93,73Z"/><path class="cls-24" d="M113.28,64c-3.41-.58-7-1.33-10.83-2.33,0,0,7.57,32.42,6.4,42.61,0,0,2.1,2.59,9.27,3.85C117,93.41,112.92,78.86,113.28,64Z"/><path class="cls-22" d="M129.34,82.53a1.64,1.64,0,1,1-1.55-1.71A1.63,1.63,0,0,1,129.34,82.53Z"/><path class="cls-25" d="M128,68.7c-.75,6.87-4.12,38.76-4.35,40a34.6,34.6,0,0,0,5.16-.12c.05-.39,7.87-39.74,8.48-41.78A27.26,27.26,0,0,1,128,68.7Z"/><path class="cls-26" d="M102.45,61.69s.93,4,2.09,9.58c2.13,2.1,9.13,4.48,17,4.63,6.49.11,16-1.63,21-5.28.74-2,1.53-4,2.42-6C145,64.65,127.93,68.34,102.45,61.69Z"/><path class="cls-22" d="M122.94,85a2.8,2.8,0,1,1-2.64-2.69A2.68,2.68,0,0,1,122.94,85Z"/><path class="cls-22" d="M116.91,93.05a2.11,2.11,0,1,1-2-2.08A2,2,0,0,1,116.91,93.05Z"/><path class="cls-22" d="M117.85,99.44a1.18,1.18,0,0,1-2.34-.13,1.13,1.13,0,0,1,1.23-1A1.11,1.11,0,0,1,117.85,99.44Z"/><path class="cls-22" d="M120.68,102.76a.69.69,0,0,1-1.38-.07.67.67,0,0,1,.72-.63A.69.69,0,0,1,120.68,102.76Z"/><path class="cls-22" d="M133.21,80.18a.66.66,0,1,1-1.32-.07.68.68,0,0,1,.7-.67A.69.69,0,0,1,133.21,80.18Z"/><path class="cls-27" d="M134.32,101.77c-6.53-1.83-12.16-5.9-14.78-12.77-2.93-7.72-2.38-16.17-1.82-24.33a120.14,120.14,0,0,1-13-2.41c.15.33.29.67.42,1,.82,2.11,2.6,15.75,3.6,20.25,1,4.34,1.74,20.45,1.79,20.8,1.81,1.05,5.19,2.39,11.07,2.85,10.1.79,12.56-2.11,12.56-2.11S134.15,103.87,134.32,101.77Z"/><path class="cls-28" d="M98.89,62.21a38.21,38.21,0,0,0,25.76,8.5c15.83-.54,22.31-4.59,24.5-6.39a24.35,24.35,0,0,1-6.1-6.37l-37.77-.57S101.37,61.33,98.89,62.21Z"/><path class="cls-29" d="M140.74,63.06c-.77-1.12-1.53-2.26-2.3-3.37l-.7.29c.77,2,1.69,3.88,2.48,5.82.33.81.66,1.63,1,2.45,1.11-.34,2.08-.7,2.94-1.06A32.77,32.77,0,0,1,140.74,63.06Z"/><path class="cls-29" d="M134,60.85c-2.72.42-5.41.88-8.11,1.2q.07,4.31.36,8.59a69.25,69.25,0,0,0,11.22-1.41c-.5-1.25-1-2.49-1.54-3.72C135.22,64,134.56,62.42,134,60.85Z"/><path class="cls-21" d="M108.78,57.44a18.18,18.18,0,0,1-2.4,2.33A42.38,42.38,0,0,0,101.16,64a39.06,39.06,0,0,0,18.22,6.58,17.54,17.54,0,0,1-.83-5c0-2.66.16-5.32.35-8Z"/><path class="cls-30" d="M143.05,58s-5.49-3-18.57-2.89-16.5.48-19.2,2.32c0,0,3.82,5.55,19.92,5.59C138.75,63,142.62,59.17,143.05,58Z"/><path class="cls-31" d="M122.52,62.91c.34-.52.68-1,1-1.57,1.26-2,2.56-3.9,3.84-5.86l.24-.38-.6,0c-2,1.58-4,3.37-6,4.83-1.22.86-2.47,1.69-3.72,2.51A52,52,0,0,0,122.52,62.91Z"/><path class="cls-31" d="M137.23,56.15a60.28,60.28,0,0,1-3,6.13c6.4-1.15,8.55-3.43,8.87-4.33A23.4,23.4,0,0,0,137.23,56.15Z"/><path class="cls-31" d="M133.31,55.52c-.46-.06-.93-.11-1.42-.15-1,1.29-1.86,3.07-2.69,4.32-.71,1.08-1.42,2.17-2.12,3.26.85,0,1.65-.06,2.42-.11C130.76,60.43,132.2,58,133.31,55.52Z"/><path class="cls-31" d="M111.07,58.2c.53-.91,1.17-1.84,1.76-2.8-4,.31-5.93.88-7.55,2,0,0,1.1,1.57,4.54,3C110.23,59.68,110.64,58.93,111.07,58.2Z"/><path class="cls-32" d="M139.36,57.45s-15-6.27-30.3-.44c0,0,4.39,3.37,16.21,3.76C135,61.08,139.36,57.45,139.36,57.45Z"/><path class="cls-28" d="M110.94,52.84s1.26,1.21,1.2,4.34c0,0,7.86,2.2,13.69,2.09a44.26,44.26,0,0,0,10.64-1.69S136.3,56,138,52.5Z"/><path class="cls-21" d="M122.59,52.69l-8.42.11a26.46,26.46,0,0,1-.47,2.85c-.15.6-.31,1.21-.48,1.81a67.26,67.26,0,0,0,8.91,1.63A40.28,40.28,0,0,1,122.59,52.69Z"/><path class="cls-29" d="M130.84,52.59l-2.81,0c-.46,2.2-.85,4.4-1.13,6.61a41.61,41.61,0,0,0,5.88-.76C132.07,56.53,131.38,54.58,130.84,52.59Z"/><path class="cls-30" d="M138,52.5s-7.73-2.61-14.15-2.57-10.1,1.16-12.91,2.91c0,0,3.35,3,13.19,3.53s13.78-3.69,13.78-3.69Z"/><path class="cls-31" d="M116.75,50.59a17.32,17.32,0,0,0-5.81,2.25,11.32,11.32,0,0,0,3.4,1.74A33,33,0,0,1,116.75,50.59Z"/><path class="cls-31" d="M122.26,52c.32-.67.6-1.36.94-2-.41,0-.81,0-1.21,0-.13.21-.25.39-.35.52-.6.76-1.21,1.51-1.75,2.31s-1.22,1.85-1.76,2.82c.68.13,1.42.26,2.22.37C121,54.66,121.62,53.3,122.26,52Z"/><path class="cls-31" d="M133.39,51.22c-.26.53-.53,1.06-.78,1.6-.48,1-.93,2-1.37,3,4.67-1,6.67-3.16,6.67-3.16l.09-.18S136.09,51.86,133.39,51.22Z"/><path class="cls-32" d="M117,52.94a32.47,32.47,0,0,1,8.9-.86,28.58,28.58,0,0,1,6,1s-2.84,1.72-8.33,1.51S117,52.94,117,52.94Z"/><path class="cls-33" d="M99.82,38.9s-.25,3.27,2.43,3.51c0,0,.79-1.76-.4-2.77S100.53,38.74,99.82,38.9Z"/><path class="cls-28" d="M126,53.08s1,.9,3.42.19l-6.15-27.62s1.55-.3.4-1.72c0,0,.54-1.63-1.1-.88,0,0-.17-1.69-1.46-.77,0,0,.09-1.14-1.68.42S99.82,38.9,99.82,38.9s2.82.89,2.43,3.51c0,0,17.85-16,18.07-15.68S125,47.73,126,53.08Z"/><path class="cls-29" d="M122.09,24.07c-.15-.47-.6-1.55-1.5-1-3.23,1.87-14.7,11.85-20,16.08a3.06,3.06,0,0,1,.5.32c.27-.43,16.37-13.92,19.54-15.75a.52.52,0,0,1,.78.26c1.35,3.22,5.22,21.94,6.55,28.13l.44,0C127.4,47,122.89,26.55,122.09,24.07Z"/><path class="cls-34" d="M40.59,104.34s34.66-2.42,36.2-2.27c1.85.18,8.71,10.53,1.45,10-4.28-.34-2.11-7.23-2.11-7.23l-16,2.69-5.29,7.4-13.08.81Z"/><g class="cls-35"><path class="cls-36" d="M42,115.43l-1.14-11.1h-.24l1.16,11.35,13.08-.81.18-.26Z"/><path class="cls-36" d="M78.46,111.76c-4.28-.34-1.88-7.42-1.88-7.42L60,107.05l-1.36,1.83-.54,1.44,2-2.85,16-2.68S74,111.68,78.24,112c1.53.12,2.43-.25,2.88-.9A3.32,3.32,0,0,1,78.46,111.76Z"/></g><path class="cls-37" d="M88.53,113.75s20.63-7.36,22.67-6.42,6.24,11.26,1.09,11.19-1.84-7.61-1.84-7.61l-12,6-4.88,10.2-5.71,4.47S85.62,121.12,88.53,113.75Z"/><path class="cls-38" d="M88.38,114.41S109,107.05,111,108c1.44.67,3.94,6,3.51,9,1-2.88-1.81-9-3.35-9.69-2-.94-22.67,6.42-22.67,6.42a19.32,19.32,0,0,0-.88,3A19.69,19.69,0,0,1,88.38,114.41Z"/><path class="cls-38" d="M76.79,102.73c1.19.12,4.44,4.44,4.69,7.36.29-2.87-3.41-7.9-4.69-8-1.54-.15-36.2,2.27-36.2,2.27l.07.67C42.07,104.91,75.28,102.59,76.79,102.73Z"/><path class="cls-39" d="M40.59,104.34v13.44L54.88,122a6,6,0,0,1,3.78-4,5,5,0,0,1,4.32.89c2,1.35,2.46,4,2.79,6.28l22.11,6.47.65-17.87Z"/><path class="cls-40" d="M63.51,118.22a6.3,6.3,0,0,0-5.2-1.09A7.45,7.45,0,0,0,54,121.71l.91.27a6,6,0,0,1,3.78-4,5,5,0,0,1,4.32.89c2,1.35,2.46,4,2.79,6.28l.35.1C66.12,122.91,65.52,119.87,63.51,118.22Z"/><path class="cls-41" d="M81.33,126.06c-5.61-.82-17.33-6.72-18.12-7,1.82,1.39,2.25,3.91,2.56,6.09l22.11,6.47.18-5C85.81,126.54,83.57,126.38,81.33,126.06Z"/><path class="cls-41" d="M42.46,114a16,16,0,0,1-1.87-1.36v5.11L54.88,122a5.92,5.92,0,0,1,3.66-4C53.33,117.62,47,116.83,42.46,114Z"/><polygon class="cls-38" points="88.35 114.45 88.5 114.45 88.53 113.75 40.59 104.34 40.59 105.01 88.35 114.38 88.35 114.45"/><path class="cls-42" d="M82.63,127.17l-13.39-3.54a2.63,2.63,0,0,1-1.78-2.45l-.08-7.47a1.49,1.49,0,0,1,1.8-1.65L83,115.31a2.66,2.66,0,0,1,1.89,2.61l-.26,7.72A1.53,1.53,0,0,1,82.63,127.17Z"/><path class="cls-43" d="M74.49,119.88c-2.61-.68-5.69-.65-6.78,2.36a2.49,2.49,0,0,0,1.53,1.39l13.39,3.54a1.78,1.78,0,0,0,.44.06A14.25,14.25,0,0,0,74.49,119.88Z"/><path class="cls-44" d="M83.91,125.64l.25-7.18A2.45,2.45,0,0,0,82.4,116l-12.83-3a1.3,1.3,0,0,0-.92.1C75.27,118.52,83.91,125.64,83.91,125.64Z"/><path class="cls-45" d="M52.14,118.76l-8.85-2.29a1.91,1.91,0,0,1-1.16-1.88l0-6.08c0-1,.57-1.59,1.26-1.43l9.34,2.18a1.91,1.91,0,0,1,1.19,2l-.47,6.18C53.43,118.37,52.82,118.94,52.14,118.76Z"/><path class="cls-43" d="M48.55,114.38a5.31,5.31,0,0,0-6.42.21,1.91,1.91,0,0,0,1.16,1.88l8.85,2.29a.81.81,0,0,0,.41,0A11.48,11.48,0,0,0,48.55,114.38Z"/><path class="cls-46" d="M53,117l.41-5.36a1.81,1.81,0,0,0-1.12-1.94l-8.83-2.06a.85.85,0,0,0-.39,0C43,107.78,53,117,53,117Z"/><path class="cls-47" d="M136.64,107.89h0c-.73-.31-1.47-.61-2.21-.9a3.82,3.82,0,0,0,.67-.53s1.26-18.67,7.55-35.9c.4-1.09.84-2.19,1.29-3.29h0l.19-.07h0a19.63,19.63,0,0,0,5-2.86,24.35,24.35,0,0,1-6.1-6.37l-.09,0h0l-.25-.12h0l-.42-.18h0A29.17,29.17,0,0,0,136.66,56,16.51,16.51,0,0,1,138,52.5a59.16,59.16,0,0,0-9.24-2.18l-5.49-24.67s1.55-.3.4-1.72c0,0,.54-1.63-1.1-.88,0,0-.17-1.69-1.46-.77,0,0,.09-1.14-1.68.42-1.19,1-9.56,7.94-15,12.39h0L88.56,36.77h0L76.4,38.05h0l-15,1.59h0l-16,1.68h0l-6.91.73L36,39.87l1.31-.38,34.06-9.85L75,28.59h0l29.88-8.65L98,4.49l-2.46.79h0L83.41,9.17,71.46,13h0L56.62,17.79h0L42.54,22.32h0L9.12,33.07,20.09,60l2.57-.28.89,4.68h0l7.88,41.36-2.88.84-.33.1c-1.64.49-3.19,1-4.65,1.45l-.23.08c-1.48.48-2.86,1-4.12,1.39h0c-6.3,2.22-9.93,3.86-9.93,3.86C32,125.9,60.84,134.56,81.48,134.57c48.85,0,69-19.72,69-19.72A113.89,113.89,0,0,0,136.64,107.89Zm-32-57.3,4.07-.46-1.39-12.19c5.29-4.72,12.9-11.43,13-11.21S123.85,42.27,125.4,50c-.52,0-1,0-1.55,0L122,50h0a28.47,28.47,0,0,0-6.91,1L115,51c-.49.15-1,.32-1.41.49l-.11,0c-.44.18-.85.37-1.25.57l-.09,0c-.41.21-.81.43-1.19.67h0A4.94,4.94,0,0,1,112,55.47l-.38,0-.37,0-.91.12-.24,0a17.47,17.47,0,0,0-1.92.39l-.21.06-.57.18-.25.09-.46.19-.23.1-.44.22-.18.1-.29.18-.12-.87h0Z"/></g></g></svg>